<svg width="18" height="17" viewBox="0 0 18 17" fill="none" xmlns="http://www.w3.org/2000/svg">
<path d="M8.03689 15.4123L8.03618 15.4116C5.70885 13.2392 3.81693 11.4723 2.50084 9.81599C1.19088 8.16741 0.5 6.68675 0.5 5.09537C0.5 2.50436 2.46769 0.5 4.95 0.5C6.35912 0.5 7.7236 1.17774 8.61474 2.25495L9 2.72065L9.38526 2.25495C10.2764 1.17774 11.6409 0.5 13.05 0.5C15.5323 0.5 17.5 2.50436 17.5 5.09537C17.5 6.68676 16.8091 8.16744 15.4991 9.81728C14.1846 11.4726 12.2959 13.2393 9.97278 15.4125L9.9645 15.4202L9.96343 15.4212L9.0013 16.316L8.03689 15.4123Z" stroke="#707070"/>
</svg>
