<svg width="102" height="42" viewBox="0 0 102 42" fill="none" xmlns="http://www.w3.org/2000/svg">
<path fill-rule="evenodd" clip-rule="evenodd" d="M52.0569 3.28245C52.0569 4.01907 52.3243 4.66522 52.8464 5.19507C53.3812 5.72491 54.0052 5.9963 54.731 5.9963C55.4569 5.9963 56.0936 5.72491 56.6157 5.19507C57.1378 4.66522 57.4052 4.01907 57.4052 3.28245C57.4052 2.54583 57.1378 1.89968 56.6157 1.36983C56.0936 0.839988 55.4569 0.568604 54.731 0.568604C54.0052 0.568604 53.3685 0.839988 52.8464 1.36983C52.3243 1.89968 52.0569 2.54583 52.0569 3.28245ZM52.6681 30.1237C52.6681 30.7181 52.8591 31.2221 53.2539 31.6228C53.6486 32.0234 54.1453 32.2172 54.731 32.2172C55.355 32.2172 55.8516 32.0234 56.2337 31.6228C56.6157 31.2351 56.8067 30.7311 56.8067 30.1237V11.7729C56.8067 11.1397 56.6157 10.6357 56.2337 10.248C55.8516 9.8603 55.355 9.66645 54.731 9.66645C54.1453 9.66645 53.6486 9.8603 53.2539 10.248C52.8591 10.6357 52.6681 11.1397 52.6681 11.7729V30.1237Z" fill="white"/>
<path d="M79.3206 30.4855C79.3206 31.0929 79.0787 31.5969 78.5948 32.0105C78.1873 32.3465 77.7543 32.5015 77.2959 32.5015C76.6974 32.5015 76.2135 32.256 75.8315 31.7649L68.1146 22.0726L66.0772 23.8818V30.1883C66.0772 30.7957 65.8989 31.2868 65.5296 31.6486C65.1603 32.0234 64.6764 32.2043 64.0906 32.2043C63.4921 32.2043 63.0082 32.0234 62.6517 31.6486C62.2824 31.2738 62.1041 30.7957 62.1041 30.1883V2.016C62.1041 1.40862 62.2824 0.917538 62.6517 0.555692C63.021 0.180923 63.4921 0 64.0906 0C64.6891 0 65.173 0.180923 65.5296 0.555692C65.8989 0.930462 66.0772 1.42154 66.0772 2.016V18.8031L75.9461 9.86031C76.3026 9.49846 76.7229 9.33046 77.2067 9.33046C77.7798 9.33046 78.2382 9.55015 78.5948 9.98954C78.9513 10.3514 79.1169 10.7778 79.1169 11.2689C79.1169 11.8505 78.9004 12.3157 78.4674 12.6775L70.9925 19.4363L78.8749 29.2578C79.1678 29.5809 79.3206 29.9945 79.3206 30.4855Z" fill="white"/>
<path fill-rule="evenodd" clip-rule="evenodd" d="M96.5752 10.9717C98.2689 11.941 99.5932 13.2979 100.561 15.0296C101.516 16.7613 102 18.7385 102 20.9742C102 23.1711 101.516 25.1354 100.574 26.8671C99.6314 28.5988 98.3071 29.9557 96.6134 30.925C94.9198 31.8942 92.9842 32.3853 90.8194 32.3853C88.6546 32.3853 86.7191 31.9071 85.0127 30.925C83.3063 29.9557 81.9692 28.5988 81.0269 26.8671C80.0719 25.1354 79.6007 23.1711 79.6007 20.9742C79.6007 18.7385 80.0846 16.7613 81.0269 15.0296C81.982 13.2979 83.3063 11.9539 85.0127 10.9717C86.7191 10.0025 88.6546 9.51141 90.8194 9.51141C92.9588 9.51141 94.8816 10.0025 96.5752 10.9717ZM82.937 20.9354C82.937 25.3551 86.4644 28.9219 90.8067 28.9219C95.149 28.9219 98.6636 25.3551 98.6764 20.9354C98.6764 16.5157 95.149 12.949 90.8067 12.949C86.4516 12.949 82.937 16.5286 82.937 20.9354Z" fill="white"/>
<path fill-rule="evenodd" clip-rule="evenodd" d="M43.0921 10.9717C44.7857 11.941 46.1101 13.2979 47.0779 15.0296C48.0329 16.7613 48.5168 18.7385 48.5041 20.9742C48.5041 23.1711 48.0202 25.1354 47.0779 26.8671C46.1355 28.5988 44.8112 29.9557 43.1176 30.925C41.4239 31.8942 39.4883 32.3853 37.3235 32.3853C35.1588 32.3853 33.2232 31.9071 31.5168 30.925C31.0711 30.6794 30.6509 30.3951 30.2561 30.085V39.7773C30.2561 40.4105 30.0651 40.9145 29.6831 41.3022C29.3011 41.6899 28.8044 41.8837 28.1805 41.8837C27.5947 41.8837 27.0981 41.6899 26.7033 41.3022C26.3086 40.9145 26.1176 40.4105 26.1176 39.7773V20.9742C26.1176 18.7385 26.6014 16.7613 27.5438 15.0296C28.4988 13.2979 29.8232 11.9539 31.5295 10.9717C32.994 10.1317 34.6494 9.65357 36.4704 9.53726H36.534H36.5722C36.8014 9.52434 37.0561 9.51141 37.2981 9.51141H37.3363C39.4756 9.51141 41.3985 10.0025 43.0921 10.9717ZM29.4539 20.9354C29.4539 25.3551 32.9812 28.9219 37.3235 28.9219C41.6659 28.9219 45.1932 25.3551 45.1932 20.9354C45.1932 16.5157 41.6659 12.949 37.3235 12.949C32.9685 12.949 29.4539 16.5286 29.4539 20.9354Z" fill="white"/>
<path fill-rule="evenodd" clip-rule="evenodd" d="M16.8854 11.0105C18.579 12.0185 19.9161 13.3883 20.9094 15.133C21.9026 16.8776 22.3865 18.816 22.3738 20.9613V30.1625C22.3738 30.757 22.1828 31.261 21.788 31.6616C21.406 32.0622 20.9094 32.256 20.3109 32.256C19.7251 32.256 19.2285 32.0622 18.8337 31.6616C18.439 31.2739 18.2479 30.7699 18.2479 30.1625V30.085C17.8659 30.3951 17.4457 30.6665 17.0127 30.925C15.3191 31.8942 13.3835 32.3853 11.2187 32.3853C9.05393 32.3853 7.11835 31.9071 5.41198 30.925C3.70562 29.9557 2.36854 28.5988 1.42622 26.8671C1.41985 26.8606 1.41667 26.851 1.41348 26.8413C1.4103 26.8316 1.40712 26.8219 1.40075 26.8154L1.36255 26.8025C0.993258 26.0788 0.700375 25.3293 0.483895 24.5539C0.464794 24.4763 0.445693 24.402 0.426592 24.3277C0.407491 24.2534 0.38839 24.1791 0.369288 24.1016C0.362921 24.0693 0.356554 24.0402 0.350187 24.0111C0.34382 23.982 0.337453 23.953 0.331086 23.9206C0.28015 23.7268 0.241949 23.52 0.203747 23.3133L0.203745 23.3133C0.203745 23.3003 0.200562 23.2874 0.197378 23.2745C0.194195 23.2616 0.191011 23.2486 0.191011 23.2357C0.152809 23.0031 0.114607 22.7705 0.0891386 22.5379V22.512C0.0636704 22.2665 0.0382022 22.021 0.0254682 21.7625V21.7496C0.0127341 21.4911 0 21.2197 0 20.9613C0 18.816 0.483895 16.8776 1.46442 15.133C2.44494 13.3883 3.79476 12.0185 5.51386 11.0105C7.23296 10.0154 9.13034 9.51141 11.2187 9.51141C13.3071 9.51141 15.1918 10.0025 16.8854 11.0105ZM3.3236 20.9354C3.3236 25.3551 6.85094 28.9219 11.1933 28.9219C15.5356 28.9219 19.0629 25.3551 19.0629 20.9354C19.0629 16.5157 15.5483 12.949 11.1933 12.949C6.8382 12.949 3.3236 16.5286 3.3236 20.9354Z" fill="white"/>
<path d="M17.0382 26.88C15.6757 28.6505 13.5618 29.7877 11.1805 29.7877H11.1551C8.76107 29.7877 6.63448 28.6246 5.28467 26.8412L11.1678 20.8966L17.0382 26.88Z" fill="#FD7114"/>
</svg>
